# xmcd
#
# Track frame offsets:
#	150
#	10587
#	21200
#	33355
#	43860
#	58200
#	71162
#	81740
#	93700
#	105450
#	115375
#	130392
#	140952
#	151587
#	163827
#	176465
#	187815
#	197797
#	208300
#	220572
#
# Disc length: 3133 seconds
#
# Revision: 3
# Processed by: cddbd v1.5.1PL0 Copyright (c) Steve Scherf et al.
# Submitted via: audiograbber 1.83.01
#
DISCID=280c3b14
DTITLE=Country and Western - Super Party Country and Western CD2
DYEAR=1900
DGENRE=
TTITLE0=Nashville Country - Bonanaza
TTITLE1=Willie Nelson - Blame it on the times
TTITLE2=Kenny Rogers - Ruben James
TTITLE3=Billy Jo Spears - I'm So Lonesome I Could Cry
TTITLE4=Anne Murray - Both Sides Now
TTITLE5=B.J. Thomas - Raindrops
TTITLE6=George Jones - Tender Years
TTITLE7=Faron Young - Sweet Dreams
TTITLE8=Nashville Country - High Noon
TTITLE9=Willie Nelson - Broken Promises
TTITLE10=Kenny Rogers - For The Good Times
TTITLE11=Waylon Jennings - Sally Was A Good Old Girl
TTITLE12=Stonewall Jackson - Things To Talk About It
TTITLE13=Faron Young - Four In The Morning
TTITLE14=Johnny Paycheck - Talk About Me
TTITLE15=Roger Miller - Little Green Apples
TTITLE16=Ferlin Husky - Wigs Of A Dove
TTITLE17=Kenny Rogers - She Even Woke Me Up To Say Good bye
TTITLE18=Willie Nelson - Shelter on My Arms
TTITLE19=Nashville Country - Wandering Stars
EXTD=
EXTT0=Nashville Country
EXTT1=Willie Nelson
EXTT2=Kenny Rogers\n
EXTT3=BIlly Jo Sppears
EXTT4=Anne Murray\n\n
EXTT5=B.J.Thomas
EXTT6=George Jones
EXTT7=FaronYoung\n
EXTT8=Nashville Country
EXTT9=Willie Nelson
EXTT10=Kenny Rogers\n
EXTT11=Waylon Jennings
EXTT12=Stonewall Jackson\n
EXTT13=Faron Young
EXTT14=Johny Paycheck
EXTT15=Roger Miller
EXTT16=Ferlin Husky
EXTT17=Kenny Rogers
EXTT18=Willy Nelson
EXTT19=Nashville Country
PLAYORDER=
